<?xml version="1.0" encoding="utf-8" standalone="no"?>
<!DOCTYPE svg PUBLIC "-//W3C//DTD SVG 1.1//EN"
  "http://www.w3.org/Graphics/SVG/1.1/DTD/svg11.dtd">
<svg xmlns:xlink="http://www.w3.org/1999/xlink" width="413.302812pt" height="310.86825pt" viewBox="0 0 413.302812 310.86825" xmlns="http://www.w3.org/2000/svg" version="1.1">
 <metadata>
  <rdf:RDF xmlns:dc="http://purl.org/dc/elements/1.1/" xmlns:cc="http://creativecommons.org/ns#" xmlns:rdf="http://www.w3.org/1999/02/22-rdf-syntax-ns#">
   <cc:Work>
    <dc:type rdf:resource="http://purl.org/dc/dcmitype/StillImage"/>
    <dc:date>2023-03-20T19:02:25.841173</dc:date>
    <dc:format>image/svg+xml</dc:format>
    <dc:creator>
     <cc:Agent>
      <dc:title>Matplotlib v3.5.2, https://matplotlib.org/</dc:title>
     </cc:Agent>
    </dc:creator>
   </cc:Work>
  </rdf:RDF>
 </metadata>
 <defs>
  <style type="text/css">*{stroke-linejoin: round; stroke-linecap: butt}</style>
 </defs>
 <g id="figure_1">
  <g id="patch_1">
   <path d="M 0 310.86825 
L 413.302812 310.86825 
L 413.302812 0 
L 0 0 
z
" style="fill: #ffffff"/>
  </g>
  <g id="axes_1">
   <g id="patch_2">
    <path d="M 48.982813 273.312 
L 406.102813 273.312 
L 406.102813 7.2 
L 48.982813 7.2 
z
" style="fill: #ffffff"/>
   </g>
   <g id="matplotlib.axis_1">
    <g id="xtick_1">
     <g id="line2d_1">
      <defs>
       <path id="mb15331c393" d="M 0 0 
L 0 3.5 
" style="stroke: #000000; stroke-width: 0.8"/>
      </defs>
      <g>
       <use xlink:href="#mb15331c393" x="65.21554" y="273.312" style="stroke: #000000; stroke-width: 0.8"/>
      </g>
     </g>
     <g id="text_1">
      <!-- 0 -->
      <g transform="translate(62.03429 287.910437)scale(0.1 -0.1)">
       <defs>
        <path id="DejaVuSans-30" d="M 2034 4250 
Q 1547 4250 1301 3770 
Q 1056 3291 1056 2328 
Q 1056 1369 1301 889 
Q 1547 409 2034 409 
Q 2525 409 2770 889 
Q 3016 1369 3016 2328 
Q 3016 3291 2770 3770 
Q 2525 4250 2034 4250 
z
M 2034 4750 
Q 2819 4750 3233 4129 
Q 3647 3509 3647 2328 
Q 3647 1150 3233 529 
Q 2819 -91 2034 -91 
Q 1250 -91 836 529 
Q 422 1150 422 2328 
Q 422 3509 836 4129 
Q 1250 4750 2034 4750 
z
" transform="scale(0.015625)"/>
       </defs>
       <use xlink:href="#DejaVuSans-30"/>
      </g>
     </g>
    </g>
    <g id="xtick_2">
     <g id="line2d_2">
      <g>
       <use xlink:href="#mb15331c393" x="130.211445" y="273.312" style="stroke: #000000; stroke-width: 0.8"/>
      </g>
     </g>
     <g id="text_2">
      <!-- 200 -->
      <g transform="translate(120.667695 287.910437)scale(0.1 -0.1)">
       <defs>
        <path id="DejaVuSans-32" d="M 1228 531 
L 3431 531 
L 3431 0 
L 469 0 
L 469 531 
Q 828 903 1448 1529 
Q 2069 2156 2228 2338 
Q 2531 2678 2651 2914 
Q 2772 3150 2772 3378 
Q 2772 3750 2511 3984 
Q 2250 4219 1831 4219 
Q 1534 4219 1204 4116 
Q 875 4013 500 3803 
L 500 4441 
Q 881 4594 1212 4672 
Q 1544 4750 1819 4750 
Q 2544 4750 2975 4387 
Q 3406 4025 3406 3419 
Q 3406 3131 3298 2873 
Q 3191 2616 2906 2266 
Q 2828 2175 2409 1742 
Q 1991 1309 1228 531 
z
" transform="scale(0.015625)"/>
       </defs>
       <use xlink:href="#DejaVuSans-32"/>
       <use xlink:href="#DejaVuSans-30" x="63.623047"/>
       <use xlink:href="#DejaVuSans-30" x="127.246094"/>
      </g>
     </g>
    </g>
    <g id="xtick_3">
     <g id="line2d_3">
      <g>
       <use xlink:href="#mb15331c393" x="195.20735" y="273.312" style="stroke: #000000; stroke-width: 0.8"/>
      </g>
     </g>
     <g id="text_3">
      <!-- 400 -->
      <g transform="translate(185.6636 287.910437)scale(0.1 -0.1)">
       <defs>
        <path id="DejaVuSans-34" d="M 2419 4116 
L 825 1625 
L 2419 1625 
L 2419 4116 
z
M 2253 4666 
L 3047 4666 
L 3047 1625 
L 3713 1625 
L 3713 1100 
L 3047 1100 
L 3047 0 
L 2419 0 
L 2419 1100 
L 313 1100 
L 313 1709 
L 2253 4666 
z
" transform="scale(0.015625)"/>
       </defs>
       <use xlink:href="#DejaVuSans-34"/>
       <use xlink:href="#DejaVuSans-30" x="63.623047"/>
       <use xlink:href="#DejaVuSans-30" x="127.246094"/>
      </g>
     </g>
    </g>
    <g id="xtick_4">
     <g id="line2d_4">
      <g>
       <use xlink:href="#mb15331c393" x="260.203255" y="273.312" style="stroke: #000000; stroke-width: 0.8"/>
      </g>
     </g>
     <g id="text_4">
      <!-- 600 -->
      <g transform="translate(250.659505 287.910437)scale(0.1 -0.1)">
       <defs>
        <path id="DejaVuSans-36" d="M 2113 2584 
Q 1688 2584 1439 2293 
Q 1191 2003 1191 1497 
Q 1191 994 1439 701 
Q 1688 409 2113 409 
Q 2538 409 2786 701 
Q 3034 994 3034 1497 
Q 3034 2003 2786 2293 
Q 2538 2584 2113 2584 
z
M 3366 4563 
L 3366 3988 
Q 3128 4100 2886 4159 
Q 2644 4219 2406 4219 
Q 1781 4219 1451 3797 
Q 1122 3375 1075 2522 
Q 1259 2794 1537 2939 
Q 1816 3084 2150 3084 
Q 2853 3084 3261 2657 
Q 3669 2231 3669 1497 
Q 3669 778 3244 343 
Q 2819 -91 2113 -91 
Q 1303 -91 875 529 
Q 447 1150 447 2328 
Q 447 3434 972 4092 
Q 1497 4750 2381 4750 
Q 2619 4750 2861 4703 
Q 3103 4656 3366 4563 
z
" transform="scale(0.015625)"/>
       </defs>
       <use xlink:href="#DejaVuSans-36"/>
       <use xlink:href="#DejaVuSans-30" x="63.623047"/>
       <use xlink:href="#DejaVuSans-30" x="127.246094"/>
      </g>
     </g>
    </g>
    <g id="xtick_5">
     <g id="line2d_5">
      <g>
       <use xlink:href="#mb15331c393" x="325.19916" y="273.312" style="stroke: #000000; stroke-width: 0.8"/>
      </g>
     </g>
     <g id="text_5">
      <!-- 800 -->
      <g transform="translate(315.65541 287.910437)scale(0.1 -0.1)">
       <defs>
        <path id="DejaVuSans-38" d="M 2034 2216 
Q 1584 2216 1326 1975 
Q 1069 1734 1069 1313 
Q 1069 891 1326 650 
Q 1584 409 2034 409 
Q 2484 409 2743 651 
Q 3003 894 3003 1313 
Q 3003 1734 2745 1975 
Q 2488 2216 2034 2216 
z
M 1403 2484 
Q 997 2584 770 2862 
Q 544 3141 544 3541 
Q 544 4100 942 4425 
Q 1341 4750 2034 4750 
Q 2731 4750 3128 4425 
Q 3525 4100 3525 3541 
Q 3525 3141 3298 2862 
Q 3072 2584 2669 2484 
Q 3125 2378 3379 2068 
Q 3634 1759 3634 1313 
Q 3634 634 3220 271 
Q 2806 -91 2034 -91 
Q 1263 -91 848 271 
Q 434 634 434 1313 
Q 434 1759 690 2068 
Q 947 2378 1403 2484 
z
M 1172 3481 
Q 1172 3119 1398 2916 
Q 1625 2713 2034 2713 
Q 2441 2713 2670 2916 
Q 2900 3119 2900 3481 
Q 2900 3844 2670 4047 
Q 2441 4250 2034 4250 
Q 1625 4250 1398 4047 
Q 1172 3844 1172 3481 
z
" transform="scale(0.015625)"/>
       </defs>
       <use xlink:href="#DejaVuSans-38"/>
       <use xlink:href="#DejaVuSans-30" x="63.623047"/>
       <use xlink:href="#DejaVuSans-30" x="127.246094"/>
      </g>
     </g>
    </g>
    <g id="xtick_6">
     <g id="line2d_6">
      <g>
       <use xlink:href="#mb15331c393" x="390.195065" y="273.312" style="stroke: #000000; stroke-width: 0.8"/>
      </g>
     </g>
     <g id="text_6">
      <!-- 1000 -->
      <g transform="translate(377.470065 287.910437)scale(0.1 -0.1)">
       <defs>
        <path id="DejaVuSans-31" d="M 794 531 
L 1825 531 
L 1825 4091 
L 703 3866 
L 703 4441 
L 1819 4666 
L 2450 4666 
L 2450 531 
L 3481 531 
L 3481 0 
L 794 0 
L 794 531 
z
" transform="scale(0.015625)"/>
       </defs>
       <use xlink:href="#DejaVuSans-31"/>
       <use xlink:href="#DejaVuSans-30" x="63.623047"/>
       <use xlink:href="#DejaVuSans-30" x="127.246094"/>
       <use xlink:href="#DejaVuSans-30" x="190.869141"/>
      </g>
     </g>
    </g>
    <g id="text_7">
     <!-- iteration number -->
     <g transform="translate(185.317031 301.588562)scale(0.1 -0.1)">
      <defs>
       <path id="DejaVuSans-69" d="M 603 3500 
L 1178 3500 
L 1178 0 
L 603 0 
L 603 3500 
z
M 603 4863 
L 1178 4863 
L 1178 4134 
L 603 4134 
L 603 4863 
z
" transform="scale(0.015625)"/>
       <path id="DejaVuSans-74" d="M 1172 4494 
L 1172 3500 
L 2356 3500 
L 2356 3053 
L 1172 3053 
L 1172 1153 
Q 1172 725 1289 603 
Q 1406 481 1766 481 
L 2356 481 
L 2356 0 
L 1766 0 
Q 1100 0 847 248 
Q 594 497 594 1153 
L 594 3053 
L 172 3053 
L 172 3500 
L 594 3500 
L 594 4494 
L 1172 4494 
z
" transform="scale(0.015625)"/>
       <path id="DejaVuSans-65" d="M 3597 1894 
L 3597 1613 
L 953 1613 
Q 991 1019 1311 708 
Q 1631 397 2203 397 
Q 2534 397 2845 478 
Q 3156 559 3463 722 
L 3463 178 
Q 3153 47 2828 -22 
Q 2503 -91 2169 -91 
Q 1331 -91 842 396 
Q 353 884 353 1716 
Q 353 2575 817 3079 
Q 1281 3584 2069 3584 
Q 2775 3584 3186 3129 
Q 3597 2675 3597 1894 
z
M 3022 2063 
Q 3016 2534 2758 2815 
Q 2500 3097 2075 3097 
Q 1594 3097 1305 2825 
Q 1016 2553 972 2059 
L 3022 2063 
z
" transform="scale(0.015625)"/>
       <path id="DejaVuSans-72" d="M 2631 2963 
Q 2534 3019 2420 3045 
Q 2306 3072 2169 3072 
Q 1681 3072 1420 2755 
Q 1159 2438 1159 1844 
L 1159 0 
L 581 0 
L 581 3500 
L 1159 3500 
L 1159 2956 
Q 1341 3275 1631 3429 
Q 1922 3584 2338 3584 
Q 2397 3584 2469 3576 
Q 2541 3569 2628 3553 
L 2631 2963 
z
" transform="scale(0.015625)"/>
       <path id="DejaVuSans-61" d="M 2194 1759 
Q 1497 1759 1228 1600 
Q 959 1441 959 1056 
Q 959 750 1161 570 
Q 1363 391 1709 391 
Q 2188 391 2477 730 
Q 2766 1069 2766 1631 
L 2766 1759 
L 2194 1759 
z
M 3341 1997 
L 3341 0 
L 2766 0 
L 2766 531 
Q 2569 213 2275 61 
Q 1981 -91 1556 -91 
Q 1019 -91 701 211 
Q 384 513 384 1019 
Q 384 1609 779 1909 
Q 1175 2209 1959 2209 
L 2766 2209 
L 2766 2266 
Q 2766 2663 2505 2880 
Q 2244 3097 1772 3097 
Q 1472 3097 1187 3025 
Q 903 2953 641 2809 
L 641 3341 
Q 956 3463 1253 3523 
Q 1550 3584 1831 3584 
Q 2591 3584 2966 3190 
Q 3341 2797 3341 1997 
z
" transform="scale(0.015625)"/>
       <path id="DejaVuSans-6f" d="M 1959 3097 
Q 1497 3097 1228 2736 
Q 959 2375 959 1747 
Q 959 1119 1226 758 
Q 1494 397 1959 397 
Q 2419 397 2687 759 
Q 2956 1122 2956 1747 
Q 2956 2369 2687 2733 
Q 2419 3097 1959 3097 
z
M 1959 3584 
Q 2709 3584 3137 3096 
Q 3566 2609 3566 1747 
Q 3566 888 3137 398 
Q 2709 -91 1959 -91 
Q 1206 -91 779 398 
Q 353 888 353 1747 
Q 353 2609 779 3096 
Q 1206 3584 1959 3584 
z
" transform="scale(0.015625)"/>
       <path id="DejaVuSans-6e" d="M 3513 2113 
L 3513 0 
L 2938 0 
L 2938 2094 
Q 2938 2591 2744 2837 
Q 2550 3084 2163 3084 
Q 1697 3084 1428 2787 
Q 1159 2491 1159 1978 
L 1159 0 
L 581 0 
L 581 3500 
L 1159 3500 
L 1159 2956 
Q 1366 3272 1645 3428 
Q 1925 3584 2291 3584 
Q 2894 3584 3203 3211 
Q 3513 2838 3513 2113 
z
" transform="scale(0.015625)"/>
       <path id="DejaVuSans-20" transform="scale(0.015625)"/>
       <path id="DejaVuSans-75" d="M 544 1381 
L 544 3500 
L 1119 3500 
L 1119 1403 
Q 1119 906 1312 657 
Q 1506 409 1894 409 
Q 2359 409 2629 706 
Q 2900 1003 2900 1516 
L 2900 3500 
L 3475 3500 
L 3475 0 
L 2900 0 
L 2900 538 
Q 2691 219 2414 64 
Q 2138 -91 1772 -91 
Q 1169 -91 856 284 
Q 544 659 544 1381 
z
M 1991 3584 
L 1991 3584 
z
" transform="scale(0.015625)"/>
       <path id="DejaVuSans-6d" d="M 3328 2828 
Q 3544 3216 3844 3400 
Q 4144 3584 4550 3584 
Q 5097 3584 5394 3201 
Q 5691 2819 5691 2113 
L 5691 0 
L 5113 0 
L 5113 2094 
Q 5113 2597 4934 2840 
Q 4756 3084 4391 3084 
Q 3944 3084 3684 2787 
Q 3425 2491 3425 1978 
L 3425 0 
L 2847 0 
L 2847 2094 
Q 2847 2600 2669 2842 
Q 2491 3084 2119 3084 
Q 1678 3084 1418 2786 
Q 1159 2488 1159 1978 
L 1159 0 
L 581 0 
L 581 3500 
L 1159 3500 
L 1159 2956 
Q 1356 3278 1631 3431 
Q 1906 3584 2284 3584 
Q 2666 3584 2933 3390 
Q 3200 3197 3328 2828 
z
" transform="scale(0.015625)"/>
       <path id="DejaVuSans-62" d="M 3116 1747 
Q 3116 2381 2855 2742 
Q 2594 3103 2138 3103 
Q 1681 3103 1420 2742 
Q 1159 2381 1159 1747 
Q 1159 1113 1420 752 
Q 1681 391 2138 391 
Q 2594 391 2855 752 
Q 3116 1113 3116 1747 
z
M 1159 2969 
Q 1341 3281 1617 3432 
Q 1894 3584 2278 3584 
Q 2916 3584 3314 3078 
Q 3713 2572 3713 1747 
Q 3713 922 3314 415 
Q 2916 -91 2278 -91 
Q 1894 -91 1617 61 
Q 1341 213 1159 525 
L 1159 0 
L 581 0 
L 581 4863 
L 1159 4863 
L 1159 2969 
z
" transform="scale(0.015625)"/>
      </defs>
      <use xlink:href="#DejaVuSans-69"/>
      <use xlink:href="#DejaVuSans-74" x="27.783203"/>
      <use xlink:href="#DejaVuSans-65" x="66.992188"/>
      <use xlink:href="#DejaVuSans-72" x="128.515625"/>
      <use xlink:href="#DejaVuSans-61" x="169.628906"/>
      <use xlink:href="#DejaVuSans-74" x="230.908203"/>
      <use xlink:href="#DejaVuSans-69" x="270.117188"/>
      <use xlink:href="#DejaVuSans-6f" x="297.900391"/>
      <use xlink:href="#DejaVuSans-6e" x="359.082031"/>
      <use xlink:href="#DejaVuSans-20" x="422.460938"/>
      <use xlink:href="#DejaVuSans-6e" x="454.248047"/>
      <use xlink:href="#DejaVuSans-75" x="517.626953"/>
      <use xlink:href="#DejaVuSans-6d" x="581.005859"/>
      <use xlink:href="#DejaVuSans-62" x="678.417969"/>
      <use xlink:href="#DejaVuSans-65" x="741.894531"/>
      <use xlink:href="#DejaVuSans-72" x="803.417969"/>
     </g>
    </g>
   </g>
   <g id="matplotlib.axis_2">
    <g id="ytick_1">
     <g id="line2d_7">
      <defs>
       <path id="me4bf58d937" d="M 0 0 
L -3.5 0 
" style="stroke: #000000; stroke-width: 0.8"/>
      </defs>
      <g>
       <use xlink:href="#me4bf58d937" x="48.982813" y="231.040574" style="stroke: #000000; stroke-width: 0.8"/>
      </g>
     </g>
     <g id="text_8">
      <!-- −10 -->
      <g transform="translate(20.878125 234.839792)scale(0.1 -0.1)">
       <defs>
        <path id="DejaVuSans-2212" d="M 678 2272 
L 4684 2272 
L 4684 1741 
L 678 1741 
L 678 2272 
z
" transform="scale(0.015625)"/>
       </defs>
       <use xlink:href="#DejaVuSans-2212"/>
       <use xlink:href="#DejaVuSans-31" x="83.789062"/>
       <use xlink:href="#DejaVuSans-30" x="147.412109"/>
      </g>
     </g>
    </g>
    <g id="ytick_2">
     <g id="line2d_8">
      <g>
       <use xlink:href="#me4bf58d937" x="48.982813" y="187.080464" style="stroke: #000000; stroke-width: 0.8"/>
      </g>
     </g>
     <g id="text_9">
      <!-- −8 -->
      <g transform="translate(27.240625 190.879683)scale(0.1 -0.1)">
       <use xlink:href="#DejaVuSans-2212"/>
       <use xlink:href="#DejaVuSans-38" x="83.789062"/>
      </g>
     </g>
    </g>
    <g id="ytick_3">
     <g id="line2d_9">
      <g>
       <use xlink:href="#me4bf58d937" x="48.982813" y="143.120355" style="stroke: #000000; stroke-width: 0.8"/>
      </g>
     </g>
     <g id="text_10">
      <!-- −6 -->
      <g transform="translate(27.240625 146.919573)scale(0.1 -0.1)">
       <use xlink:href="#DejaVuSans-2212"/>
       <use xlink:href="#DejaVuSans-36" x="83.789062"/>
      </g>
     </g>
    </g>
    <g id="ytick_4">
     <g id="line2d_10">
      <g>
       <use xlink:href="#me4bf58d937" x="48.982813" y="99.160245" style="stroke: #000000; stroke-width: 0.8"/>
      </g>
     </g>
     <g id="text_11">
      <!-- −4 -->
      <g transform="translate(27.240625 102.959464)scale(0.1 -0.1)">
       <use xlink:href="#DejaVuSans-2212"/>
       <use xlink:href="#DejaVuSans-34" x="83.789062"/>
      </g>
     </g>
    </g>
    <g id="ytick_5">
     <g id="line2d_11">
      <g>
       <use xlink:href="#me4bf58d937" x="48.982813" y="55.200136" style="stroke: #000000; stroke-width: 0.8"/>
      </g>
     </g>
     <g id="text_12">
      <!-- −2 -->
      <g transform="translate(27.240625 58.999355)scale(0.1 -0.1)">
       <use xlink:href="#DejaVuSans-2212"/>
       <use xlink:href="#DejaVuSans-32" x="83.789062"/>
      </g>
     </g>
    </g>
    <g id="ytick_6">
     <g id="line2d_12">
      <g>
       <use xlink:href="#me4bf58d937" x="48.982813" y="11.240026" style="stroke: #000000; stroke-width: 0.8"/>
      </g>
     </g>
     <g id="text_13">
      <!-- 0 -->
      <g transform="translate(35.620313 15.039245)scale(0.1 -0.1)">
       <use xlink:href="#DejaVuSans-30"/>
      </g>
     </g>
    </g>
    <g id="text_14">
     <!-- (f - f*)k^2 -->
     <g transform="translate(14.798438 165.426312)rotate(-90)scale(0.1 -0.1)">
      <defs>
       <path id="DejaVuSans-28" d="M 1984 4856 
Q 1566 4138 1362 3434 
Q 1159 2731 1159 2009 
Q 1159 1288 1364 580 
Q 1569 -128 1984 -844 
L 1484 -844 
Q 1016 -109 783 600 
Q 550 1309 550 2009 
Q 550 2706 781 3412 
Q 1013 4119 1484 4856 
L 1984 4856 
z
" transform="scale(0.015625)"/>
       <path id="DejaVuSans-66" d="M 2375 4863 
L 2375 4384 
L 1825 4384 
Q 1516 4384 1395 4259 
Q 1275 4134 1275 3809 
L 1275 3500 
L 2222 3500 
L 2222 3053 
L 1275 3053 
L 1275 0 
L 697 0 
L 697 3053 
L 147 3053 
L 147 3500 
L 697 3500 
L 697 3744 
Q 697 4328 969 4595 
Q 1241 4863 1831 4863 
L 2375 4863 
z
" transform="scale(0.015625)"/>
       <path id="DejaVuSans-2d" d="M 313 2009 
L 1997 2009 
L 1997 1497 
L 313 1497 
L 313 2009 
z
" transform="scale(0.015625)"/>
       <path id="DejaVuSans-2a" d="M 3009 3897 
L 1888 3291 
L 3009 2681 
L 2828 2375 
L 1778 3009 
L 1778 1831 
L 1422 1831 
L 1422 3009 
L 372 2375 
L 191 2681 
L 1313 3291 
L 191 3897 
L 372 4206 
L 1422 3572 
L 1422 4750 
L 1778 4750 
L 1778 3572 
L 2828 4206 
L 3009 3897 
z
" transform="scale(0.015625)"/>
       <path id="DejaVuSans-29" d="M 513 4856 
L 1013 4856 
Q 1481 4119 1714 3412 
Q 1947 2706 1947 2009 
Q 1947 1309 1714 600 
Q 1481 -109 1013 -844 
L 513 -844 
Q 928 -128 1133 580 
Q 1338 1288 1338 2009 
Q 1338 2731 1133 3434 
Q 928 4138 513 4856 
z
" transform="scale(0.015625)"/>
       <path id="DejaVuSans-6b" d="M 581 4863 
L 1159 4863 
L 1159 1991 
L 2875 3500 
L 3609 3500 
L 1753 1863 
L 3688 0 
L 2938 0 
L 1159 1709 
L 1159 0 
L 581 0 
L 581 4863 
z
" transform="scale(0.015625)"/>
       <path id="DejaVuSans-5e" d="M 2988 4666 
L 4684 2925 
L 4056 2925 
L 2681 4159 
L 1306 2925 
L 678 2925 
L 2375 4666 
L 2988 4666 
z
" transform="scale(0.015625)"/>
      </defs>
      <use xlink:href="#DejaVuSans-28"/>
      <use xlink:href="#DejaVuSans-66" x="39.013672"/>
      <use xlink:href="#DejaVuSans-20" x="74.21875"/>
      <use xlink:href="#DejaVuSans-2d" x="106.005859"/>
      <use xlink:href="#DejaVuSans-20" x="142.089844"/>
      <use xlink:href="#DejaVuSans-66" x="173.876953"/>
      <use xlink:href="#DejaVuSans-2a" x="209.082031"/>
      <use xlink:href="#DejaVuSans-29" x="259.082031"/>
      <use xlink:href="#DejaVuSans-6b" x="298.095703"/>
      <use xlink:href="#DejaVuSans-5e" x="356.005859"/>
      <use xlink:href="#DejaVuSans-32" x="439.794922"/>
     </g>
    </g>
   </g>
   <g id="line2d_13">
    <path d="M 65.21554 19.296 
L 67.815376 25.466991 
L 69.765253 29.542716 
L 71.71513 33.205535 
L 73.989987 37.035428 
L 76.589823 40.862045 
L 78.5397 43.424471 
L 81.464516 46.877423 
L 84.064352 49.600967 
L 87.639127 52.938373 
L 91.538881 56.13314 
L 95.113656 58.734563 
L 98.038472 60.657206 
L 101.613247 62.838495 
L 106.16296 65.343327 
L 112.98753 68.661345 
L 118.187202 70.913944 
L 124.361813 73.310372 
L 132.486301 76.135574 
L 141.260749 78.840358 
L 153.284991 82.080631 
L 160.75952 83.875323 
L 173.433722 86.643057 
L 191.307595 90.039217 
L 214.706121 93.805204 
L 240.379504 97.326769 
L 255.003582 99.102786 
L 305.375409 104.310447 
L 363.546744 109.105786 
L 384.020454 110.568899 
L 389.870085 110.97545 
L 389.870085 110.97545 
" clip-path="url(#p9e5efca4f2)" style="fill: none; stroke: #1f77b4; stroke-width: 1.5; stroke-linecap: square"/>
   </g>
   <g id="line2d_14">
    <path d="M 65.21554 19.296 
L 65.865499 34.564573 
L 66.515458 44.776191 
L 67.165417 52.206612 
L 68.140355 60.298623 
L 69.115294 66.192387 
L 70.090233 70.8631 
L 71.390151 75.883081 
L 72.690069 80.077088 
L 73.989987 83.518639 
L 76.264844 88.567742 
L 77.564762 90.983799 
L 79.839618 94.646267 
L 82.114475 97.880455 
L 85.039291 101.36566 
L 86.339209 102.757662 
L 91.863861 107.837162 
L 93.813738 109.384828 
L 95.113656 110.41883 
L 97.388513 111.959705 
L 98.688431 112.865321 
L 104.863042 116.53845 
L 105.83798 117.00948 
L 107.787858 118.170733 
L 109.737735 119.106028 
L 113.312509 120.873264 
L 115.262387 121.61474 
L 116.562305 122.338211 
L 119.162141 123.331197 
L 120.462059 123.841562 
L 122.086957 124.543236 
L 123.061895 124.848388 
L 124.036834 125.127074 
L 126.31169 126.097608 
L 127.286629 126.304009 
L 132.161322 128.073614 
L 133.46124 128.423435 
L 135.086138 129.113081 
L 136.711035 129.387151 
L 138.660912 130.169344 
L 139.960831 130.433675 
L 141.585728 130.962656 
L 142.885646 131.301967 
L 144.185564 131.801224 
L 146.135441 132.135406 
L 147.43536 132.722746 
L 149.710216 133.147963 
L 150.685155 133.482222 
L 152.310052 133.835337 
L 153.609971 134.231087 
L 154.909889 134.350395 
L 155.884827 134.797707 
L 156.534786 135.050819 
L 157.509725 135.079683 
L 158.159684 135.122813 
L 159.134622 135.508796 
L 160.109561 135.813578 
L 161.409479 135.978792 
L 163.034377 136.412309 
L 164.009315 136.495259 
L 164.984254 136.882228 
L 165.634213 137.138152 
L 166.284172 137.181233 
L 167.259111 137.142683 
L 167.90907 137.358421 
L 168.884008 137.815864 
L 169.533967 137.898414 
L 170.508906 137.921874 
L 174.40866 138.908687 
L 175.058619 139.077356 
L 176.683517 139.073422 
L 178.633394 139.779279 
L 179.933312 139.746912 
L 181.883189 140.297511 
L 182.858128 140.395208 
L 184.483025 140.816107 
L 185.782944 140.804567 
L 186.757882 141.261591 
L 187.407841 141.49341 
L 188.0578 141.455031 
L 189.032739 141.367372 
L 189.682698 141.595623 
L 190.657636 141.988668 
L 193.257473 142.366461 
L 194.232411 142.412094 
L 194.88237 142.437526 
L 195.532329 142.666353 
L 196.507268 143.06621 
L 197.157227 143.031491 
L 198.132165 142.888701 
L 198.782125 143.112563 
L 199.757063 143.583186 
L 200.407022 143.608919 
L 201.381961 143.538234 
L 202.356899 143.816749 
L 203.006858 143.958046 
L 204.306776 144.03876 
L 205.931674 144.529305 
L 207.556572 144.402506 
L 209.181469 145.11184 
L 211.131346 145.036503 
L 212.106285 145.402581 
L 213.081224 145.450741 
L 213.731183 145.515763 
L 215.031101 145.862309 
L 216.655998 145.78279 
L 218.605876 146.448535 
L 219.580814 146.19094 
L 220.230773 146.298898 
L 221.530691 146.847945 
L 223.805548 147.02582 
L 224.455507 147.12898 
L 225.755425 147.114213 
L 226.405384 147.370831 
L 227.055343 147.672726 
L 227.705302 147.706202 
L 229.00522 147.420251 
L 229.655179 147.684285 
L 230.630118 148.161821 
L 231.280077 148.131764 
L 232.255016 147.999853 
L 235.82979 148.700479 
L 236.479749 148.879625 
L 237.129708 148.790092 
L 237.779668 148.611649 
L 238.429627 148.698665 
L 239.729545 149.385392 
L 240.379504 149.338453 
L 241.354442 149.089229 
L 242.004401 149.230965 
L 242.97934 149.595537 
L 243.954279 149.623071 
L 244.604238 149.687092 
L 245.904156 149.945759 
L 247.204074 149.778062 
L 247.854033 150.01827 
L 248.828971 150.513161 
L 249.47893 150.453821 
L 250.453869 150.133917 
L 251.103828 150.273933 
L 252.078767 150.761792 
L 252.728726 150.825775 
L 254.028644 150.769258 
L 255.328562 150.971921 
L 256.3035 150.931872 
L 256.95346 151.122673 
L 257.928398 151.543561 
L 258.578357 151.482898 
L 259.553296 151.154037 
L 260.203255 151.303039 
L 261.503173 151.952698 
L 262.153132 151.868874 
L 263.12807 151.703057 
L 266.377866 152.286105 
L 267.027825 152.481188 
L 267.677784 152.438208 
L 268.652722 152.167176 
L 269.302681 152.327645 
L 270.6026 152.995293 
L 271.252559 152.872313 
L 272.227497 152.596023 
L 272.877456 152.752975 
L 273.852395 153.110849 
L 276.452231 153.362724 
L 278.077129 153.224329 
L 278.727088 153.528436 
L 279.377047 153.879131 
L 280.027006 153.912255 
L 281.326924 153.471396 
L 281.976883 153.657583 
L 282.951822 154.143205 
L 283.601781 154.185446 
L 284.901699 154.094788 
L 286.201617 154.207191 
L 287.176555 154.2481 
L 288.151494 154.641648 
L 288.801453 154.805512 
L 289.451412 154.648454 
L 290.101371 154.38891 
L 290.75133 154.414432 
L 292.376228 155.176487 
L 293.026187 155.050967 
L 293.676146 154.879738 
L 294.326105 154.906419 
L 296.275982 155.252572 
L 298.225859 155.541118 
L 299.525777 155.247976 
L 300.175736 155.494224 
L 301.150675 156.035507 
L 301.800634 156.010969 
L 303.100552 155.619211 
L 303.750511 155.784841 
L 304.72545 156.144796 
L 306.025368 156.235828 
L 307.325286 156.270236 
L 308.625204 156.167841 
L 309.275163 156.414304 
L 310.250102 156.864326 
L 310.900061 156.792381 
L 311.874999 156.400922 
L 312.524958 156.457062 
L 314.149856 157.12401 
L 317.399651 157.044095 
L 318.37459 157.311235 
L 319.349528 157.605177 
L 319.999487 157.497669 
L 320.974426 157.164627 
L 321.624385 157.276267 
L 322.924303 157.94839 
L 323.574262 157.924758 
L 324.87418 157.610833 
L 325.849119 157.779921 
L 327.798996 158.221114 
L 328.448955 158.265706 
L 329.423894 158.058044 
L 330.073853 157.955205 
L 330.723812 158.127238 
L 332.02373 158.741078 
L 332.673689 158.650162 
L 333.648627 158.294837 
L 334.298586 158.327529 
L 336.248464 158.941739 
L 337.548382 158.866256 
L 338.8483 158.743511 
L 339.498259 158.863009 
L 341.123156 159.442731 
L 341.773116 159.295813 
L 342.748054 158.963134 
L 343.398013 159.062811 
L 345.022911 159.725997 
L 345.67287 159.651456 
L 346.972788 159.413051 
L 347.947727 159.532411 
L 349.897604 160.071964 
L 350.547563 159.987804 
L 351.847481 159.66758 
L 352.49744 159.842089 
L 353.797358 160.442498 
L 354.447317 160.393836 
L 355.747235 160.014225 
L 356.397194 160.094428 
L 358.347071 160.694496 
L 359.32201 160.598163 
L 360.621928 160.380138 
L 361.271887 160.511717 
L 362.896785 161.116506 
L 363.546744 160.992698 
L 364.521682 160.648809 
L 365.171641 160.684232 
L 367.121518 161.39372 
L 368.096457 161.188689 
L 369.071396 161.018806 
L 369.721355 161.107697 
L 371.671232 161.708239 
L 372.321191 161.630754 
L 373.621109 161.274555 
L 374.271068 161.396641 
L 375.895966 162.077062 
L 376.545925 161.946592 
L 377.520863 161.603304 
L 378.170822 161.624584 
L 380.445679 162.291583 
L 381.420618 162.114578 
L 382.395556 161.941147 
L 383.045515 162.027396 
L 384.995392 162.686268 
L 385.645351 162.475458 
L 386.62029 162.140049 
L 387.270249 162.277077 
L 388.570167 162.913945 
L 389.220126 162.918701 
L 389.870085 162.735342 
L 389.870085 162.735342 
" clip-path="url(#p9e5efca4f2)" style="fill: none; stroke: #ff7f0e; stroke-width: 1.5; stroke-linecap: square"/>
   </g>
   <g id="line2d_15">
    <path d="M 65.21554 19.296 
L 66.515458 36.084076 
L 67.815376 50.137715 
L 69.115294 61.558249 
L 70.415212 70.963549 
L 71.71513 78.917521 
L 73.340028 87.376336 
L 74.964926 94.484015 
L 76.914803 101.858479 
L 78.5397 107.183874 
L 80.489577 112.831665 
L 82.439455 117.897276 
L 84.389332 122.375583 
L 86.989168 127.812946 
L 89.589004 132.588946 
L 91.863861 136.42794 
L 95.113656 141.36425 
L 97.388513 144.479138 
L 100.963288 149.039674 
L 105.188021 153.85798 
L 110.062714 158.81326 
L 115.262387 163.527155 
L 121.436998 168.559322 
L 124.361813 170.744911 
L 132.811281 176.538224 
L 142.235687 182.171243 
L 153.93495 188.302499 
L 158.159684 190.314712 
L 162.059438 192.070748 
L 165.634213 193.621123 
L 174.40866 197.253278 
L 190.657636 203.284892 
L 209.506449 209.330997 
L 212.756244 210.296676 
L 222.830609 213.145561 
L 250.128889 220.064018 
L 253.703664 220.891936 
L 268.652722 224.178925 
L 275.477292 225.605827 
L 281.326924 226.806964 
L 296.275982 229.659324 
L 307.325286 231.705368 
L 310.250102 232.20926 
L 316.749692 233.371465 
L 327.798996 235.197827 
L 334.298586 236.262099 
L 340.148218 237.214638 
L 345.022911 237.982607 
L 377.195884 242.683588 
L 380.770659 243.185494 
L 389.870085 244.423088 
L 389.870085 244.423088 
" clip-path="url(#p9e5efca4f2)" style="fill: none; stroke: #2ca02c; stroke-width: 1.5; stroke-linecap: square"/>
   </g>
   <g id="line2d_16">
    <path d="M 65.21554 19.296 
L 65.540519 55.154116 
L 66.190478 79.866645 
L 67.165417 107.343908 
L 68.140355 126.819279 
L 68.790315 136.021109 
L 69.440274 142.994337 
L 70.415212 151.135093 
L 71.390151 157.982605 
L 72.690069 164.870823 
L 73.989987 170.655192 
L 74.964926 173.995214 
L 77.564762 181.515852 
L 78.214721 183.109494 
L 81.789496 189.94651 
L 83.089414 191.954102 
L 85.039291 194.855039 
L 86.339209 196.499781 
L 87.314147 197.945693 
L 90.238963 201.08681 
L 91.538881 202.453029 
L 92.838799 203.462957 
L 94.138717 204.84398 
L 96.088595 206.485941 
L 96.738554 207.051366 
L 98.688431 208.394597 
L 101.288267 210.310249 
L 101.938226 210.589086 
L 103.888103 212.091312 
L 108.762796 214.938367 
L 109.737735 215.645124 
L 110.712673 215.957598 
L 111.362632 216.215168 
L 112.98753 217.264725 
L 117.537243 219.326113 
L 118.187202 219.679036 
L 118.837161 220.108668 
L 119.8121 220.392658 
L 120.787039 220.747906 
L 123.061895 221.886376 
L 123.711854 222.028238 
L 124.361813 222.162298 
L 125.986711 223.032501 
L 127.611609 223.584138 
L 128.586547 223.995467 
L 129.886465 224.410847 
L 131.186383 224.908246 
L 132.486301 225.45644 
L 133.78622 225.646544 
L 135.086138 226.335968 
L 137.036015 226.871948 
L 139.310871 227.649284 
L 140.28581 227.867344 
L 141.585728 228.443664 
L 143.210626 228.702975 
L 144.185564 229.191405 
L 147.43536 230.052357 
L 148.410298 230.387917 
L 149.710216 230.624495 
L 150.685155 231.059148 
L 152.635032 231.412907 
L 154.909889 232.149197 
L 156.209807 232.264957 
L 157.509725 232.813866 
L 159.459602 233.225966 
L 160.109561 233.423675 
L 161.734459 233.742733 
L 163.034377 234.09046 
L 164.009315 234.39928 
L 164.659274 234.432164 
L 165.309233 234.430543 
L 167.58409 235.136825 
L 170.508906 235.797715 
L 171.483844 235.931559 
L 172.133803 236.073489 
L 173.108742 236.440244 
L 175.058619 236.655335 
L 176.033558 237.005391 
L 178.958374 237.505097 
L 179.933312 237.800301 
L 181.883189 238.162379 
L 182.533148 238.331611 
L 183.833066 238.425337 
L 187.082862 239.093533 
L 187.732821 239.079025 
L 189.682698 239.634922 
L 190.982616 239.806293 
L 191.957555 240.039725 
L 192.932493 240.167193 
L 196.182288 240.781035 
L 197.157227 240.767622 
L 198.457145 241.23279 
L 200.407022 241.44146 
L 204.306776 242.183262 
L 204.956736 242.333497 
L 206.581633 242.379436 
L 207.556572 242.710511 
L 209.506449 242.936226 
L 210.156408 242.958587 
L 212.106285 243.394527 
L 213.081224 243.445226 
L 214.381142 243.772392 
L 215.68106 243.852388 
L 217.630937 244.247358 
L 218.605876 244.371433 
L 219.580814 244.338443 
L 220.880732 244.761145 
L 222.830609 244.953259 
L 223.805548 245.112797 
L 225.755425 245.324514 
L 228.030282 245.68395 
L 228.680241 245.630687 
L 229.3302 245.838985 
L 229.980159 246.050685 
L 232.904975 246.345477 
L 234.854852 246.588469 
L 235.504811 246.657358 
L 236.479749 246.946995 
L 238.754606 247.136754 
L 239.729545 247.302368 
L 241.354442 247.41309 
L 242.004401 247.461784 
L 243.629299 247.822491 
L 244.929217 247.875202 
L 245.904156 248.12647 
L 247.529053 248.195659 
L 250.128889 248.63293 
L 251.103828 248.540042 
L 253.378685 248.964646 
L 254.353623 249.051273 
L 255.653541 249.242 
L 257.603419 249.41437 
L 259.878275 249.68738 
L 260.528234 249.655411 
L 262.153132 250.040616 
L 264.427989 250.209149 
L 266.052886 250.481685 
L 267.352804 250.539412 
L 268.327743 250.780714 
L 270.27762 250.855251 
L 271.252559 251.05692 
L 274.177374 251.313126 
L 275.152313 251.500758 
L 276.777211 251.585117 
L 277.752149 251.7696 
L 279.052067 251.799278 
L 281.001944 252.09992 
L 281.976883 252.194188 
L 282.951822 252.100012 
L 284.25174 252.473552 
L 285.876637 252.502285 
L 287.501535 252.713998 
L 290.426351 253.086455 
L 291.07631 253.139647 
L 292.376228 253.064902 
L 293.351166 253.381494 
L 297.250921 253.721009 
L 298.225859 253.759502 
L 298.875818 253.763555 
L 300.175736 254.039121 
L 301.475654 253.985823 
L 304.075491 254.38274 
L 306.025368 254.535603 
L 307.000306 254.674668 
L 308.300224 254.657777 
L 309.275163 254.887144 
L 311.22504 254.953423 
L 313.499897 255.274795 
L 314.799815 255.188105 
L 315.774754 255.482171 
L 324.549201 256.161568 
L 325.19916 256.311348 
L 327.474016 256.363853 
L 329.423894 256.655696 
L 330.723812 256.641819 
L 331.69875 256.881279 
L 333.648627 256.890658 
L 334.623566 257.071419 
L 337.548382 257.256156 
L 338.52332 257.432772 
L 340.148218 257.449572 
L 341.123156 257.625393 
L 342.423075 257.642337 
L 344.047972 257.831859 
L 345.34789 257.949361 
L 346.322829 257.839255 
L 347.947727 258.168824 
L 349.572624 258.223455 
L 351.847481 258.443195 
L 353.147399 258.495946 
L 354.122337 258.682904 
L 355.097276 258.617079 
L 355.747235 258.589279 
L 357.047153 258.889374 
L 358.99703 258.922741 
L 359.971969 259.028158 
L 360.946908 259.183314 
L 362.896785 259.321315 
L 363.546744 259.399823 
L 365.171641 259.355331 
L 366.14658 259.552372 
L 368.096457 259.623794 
L 368.746416 259.594703 
L 370.696293 259.876782 
L 371.671232 259.852699 
L 372.64617 260.065128 
L 375.246007 260.151743 
L 376.870904 260.356135 
L 378.495802 260.358906 
L 379.145761 260.523777 
L 380.120699 260.537566 
L 381.420618 260.601188 
L 383.370495 260.781875 
L 384.995392 260.860159 
L 385.645351 261.009135 
L 386.62029 260.947205 
L 387.595229 260.950031 
L 388.570167 261.193233 
L 389.870085 261.216 
L 389.870085 261.216 
" clip-path="url(#p9e5efca4f2)" style="fill: none; stroke: #d62728; stroke-width: 1.5; stroke-linecap: square"/>
   </g>
   <g id="patch_3">
    <path d="M 48.982813 273.312 
L 48.982813 7.2 
" style="fill: none; stroke: #000000; stroke-width: 0.8; stroke-linejoin: miter; stroke-linecap: square"/>
   </g>
   <g id="patch_4">
    <path d="M 406.102813 273.312 
L 406.102813 7.2 
" style="fill: none; stroke: #000000; stroke-width: 0.8; stroke-linejoin: miter; stroke-linecap: square"/>
   </g>
   <g id="patch_5">
    <path d="M 48.982813 273.312 
L 406.102812 273.312 
" style="fill: none; stroke: #000000; stroke-width: 0.8; stroke-linejoin: miter; stroke-linecap: square"/>
   </g>
   <g id="patch_6">
    <path d="M 48.982813 7.2 
L 406.102812 7.2 
" style="fill: none; stroke: #000000; stroke-width: 0.8; stroke-linejoin: miter; stroke-linecap: square"/>
   </g>
   <g id="legend_1">
    <g id="patch_7">
     <path d="M 179.099688 73.9125 
L 399.102813 73.9125 
Q 401.102813 73.9125 401.102813 71.9125 
L 401.102813 14.2 
Q 401.102813 12.2 399.102813 12.2 
L 179.099688 12.2 
Q 177.099688 12.2 177.099688 14.2 
L 177.099688 71.9125 
Q 177.099688 73.9125 179.099688 73.9125 
z
" style="fill: #ffffff; opacity: 0.8; stroke: #cccccc; stroke-linejoin: miter"/>
    </g>
    <g id="line2d_17">
     <path d="M 181.099688 20.298437 
L 191.099688 20.298437 
L 201.099688 20.298437 
" style="fill: none; stroke: #1f77b4; stroke-width: 1.5; stroke-linecap: square"/>
    </g>
    <g id="text_15">
     <!-- gradient descent distributed agent 0 -->
     <g transform="translate(209.099688 23.798437)scale(0.1 -0.1)">
      <defs>
       <path id="DejaVuSans-67" d="M 2906 1791 
Q 2906 2416 2648 2759 
Q 2391 3103 1925 3103 
Q 1463 3103 1205 2759 
Q 947 2416 947 1791 
Q 947 1169 1205 825 
Q 1463 481 1925 481 
Q 2391 481 2648 825 
Q 2906 1169 2906 1791 
z
M 3481 434 
Q 3481 -459 3084 -895 
Q 2688 -1331 1869 -1331 
Q 1566 -1331 1297 -1286 
Q 1028 -1241 775 -1147 
L 775 -588 
Q 1028 -725 1275 -790 
Q 1522 -856 1778 -856 
Q 2344 -856 2625 -561 
Q 2906 -266 2906 331 
L 2906 616 
Q 2728 306 2450 153 
Q 2172 0 1784 0 
Q 1141 0 747 490 
Q 353 981 353 1791 
Q 353 2603 747 3093 
Q 1141 3584 1784 3584 
Q 2172 3584 2450 3431 
Q 2728 3278 2906 2969 
L 2906 3500 
L 3481 3500 
L 3481 434 
z
" transform="scale(0.015625)"/>
       <path id="DejaVuSans-64" d="M 2906 2969 
L 2906 4863 
L 3481 4863 
L 3481 0 
L 2906 0 
L 2906 525 
Q 2725 213 2448 61 
Q 2172 -91 1784 -91 
Q 1150 -91 751 415 
Q 353 922 353 1747 
Q 353 2572 751 3078 
Q 1150 3584 1784 3584 
Q 2172 3584 2448 3432 
Q 2725 3281 2906 2969 
z
M 947 1747 
Q 947 1113 1208 752 
Q 1469 391 1925 391 
Q 2381 391 2643 752 
Q 2906 1113 2906 1747 
Q 2906 2381 2643 2742 
Q 2381 3103 1925 3103 
Q 1469 3103 1208 2742 
Q 947 2381 947 1747 
z
" transform="scale(0.015625)"/>
       <path id="DejaVuSans-73" d="M 2834 3397 
L 2834 2853 
Q 2591 2978 2328 3040 
Q 2066 3103 1784 3103 
Q 1356 3103 1142 2972 
Q 928 2841 928 2578 
Q 928 2378 1081 2264 
Q 1234 2150 1697 2047 
L 1894 2003 
Q 2506 1872 2764 1633 
Q 3022 1394 3022 966 
Q 3022 478 2636 193 
Q 2250 -91 1575 -91 
Q 1294 -91 989 -36 
Q 684 19 347 128 
L 347 722 
Q 666 556 975 473 
Q 1284 391 1588 391 
Q 1994 391 2212 530 
Q 2431 669 2431 922 
Q 2431 1156 2273 1281 
Q 2116 1406 1581 1522 
L 1381 1569 
Q 847 1681 609 1914 
Q 372 2147 372 2553 
Q 372 3047 722 3315 
Q 1072 3584 1716 3584 
Q 2034 3584 2315 3537 
Q 2597 3491 2834 3397 
z
" transform="scale(0.015625)"/>
       <path id="DejaVuSans-63" d="M 3122 3366 
L 3122 2828 
Q 2878 2963 2633 3030 
Q 2388 3097 2138 3097 
Q 1578 3097 1268 2742 
Q 959 2388 959 1747 
Q 959 1106 1268 751 
Q 1578 397 2138 397 
Q 2388 397 2633 464 
Q 2878 531 3122 666 
L 3122 134 
Q 2881 22 2623 -34 
Q 2366 -91 2075 -91 
Q 1284 -91 818 406 
Q 353 903 353 1747 
Q 353 2603 823 3093 
Q 1294 3584 2113 3584 
Q 2378 3584 2631 3529 
Q 2884 3475 3122 3366 
z
" transform="scale(0.015625)"/>
      </defs>
      <use xlink:href="#DejaVuSans-67"/>
      <use xlink:href="#DejaVuSans-72" x="63.476562"/>
      <use xlink:href="#DejaVuSans-61" x="104.589844"/>
      <use xlink:href="#DejaVuSans-64" x="165.869141"/>
      <use xlink:href="#DejaVuSans-69" x="229.345703"/>
      <use xlink:href="#DejaVuSans-65" x="257.128906"/>
      <use xlink:href="#DejaVuSans-6e" x="318.652344"/>
      <use xlink:href="#DejaVuSans-74" x="382.03125"/>
      <use xlink:href="#DejaVuSans-20" x="421.240234"/>
      <use xlink:href="#DejaVuSans-64" x="453.027344"/>
      <use xlink:href="#DejaVuSans-65" x="516.503906"/>
      <use xlink:href="#DejaVuSans-73" x="578.027344"/>
      <use xlink:href="#DejaVuSans-63" x="630.126953"/>
      <use xlink:href="#DejaVuSans-65" x="685.107422"/>
      <use xlink:href="#DejaVuSans-6e" x="746.630859"/>
      <use xlink:href="#DejaVuSans-74" x="810.009766"/>
      <use xlink:href="#DejaVuSans-20" x="849.21875"/>
      <use xlink:href="#DejaVuSans-64" x="881.005859"/>
      <use xlink:href="#DejaVuSans-69" x="944.482422"/>
      <use xlink:href="#DejaVuSans-73" x="972.265625"/>
      <use xlink:href="#DejaVuSans-74" x="1024.365234"/>
      <use xlink:href="#DejaVuSans-72" x="1063.574219"/>
      <use xlink:href="#DejaVuSans-69" x="1104.6875"/>
      <use xlink:href="#DejaVuSans-62" x="1132.470703"/>
      <use xlink:href="#DejaVuSans-75" x="1195.947266"/>
      <use xlink:href="#DejaVuSans-74" x="1259.326172"/>
      <use xlink:href="#DejaVuSans-65" x="1298.535156"/>
      <use xlink:href="#DejaVuSans-64" x="1360.058594"/>
      <use xlink:href="#DejaVuSans-20" x="1423.535156"/>
      <use xlink:href="#DejaVuSans-61" x="1455.322266"/>
      <use xlink:href="#DejaVuSans-67" x="1516.601562"/>
      <use xlink:href="#DejaVuSans-65" x="1580.078125"/>
      <use xlink:href="#DejaVuSans-6e" x="1641.601562"/>
      <use xlink:href="#DejaVuSans-74" x="1704.980469"/>
      <use xlink:href="#DejaVuSans-20" x="1744.189453"/>
      <use xlink:href="#DejaVuSans-30" x="1775.976562"/>
     </g>
    </g>
    <g id="line2d_18">
     <path d="M 181.099688 34.976562 
L 191.099688 34.976562 
L 201.099688 34.976562 
" style="fill: none; stroke: #ff7f0e; stroke-width: 1.5; stroke-linecap: square"/>
    </g>
    <g id="text_16">
     <!-- mirror descent distributed agent 0 -->
     <g transform="translate(209.099688 38.476562)scale(0.1 -0.1)">
      <use xlink:href="#DejaVuSans-6d"/>
      <use xlink:href="#DejaVuSans-69" x="97.412109"/>
      <use xlink:href="#DejaVuSans-72" x="125.195312"/>
      <use xlink:href="#DejaVuSans-72" x="164.558594"/>
      <use xlink:href="#DejaVuSans-6f" x="203.421875"/>
      <use xlink:href="#DejaVuSans-72" x="264.603516"/>
      <use xlink:href="#DejaVuSans-20" x="305.716797"/>
      <use xlink:href="#DejaVuSans-64" x="337.503906"/>
      <use xlink:href="#DejaVuSans-65" x="400.980469"/>
      <use xlink:href="#DejaVuSans-73" x="462.503906"/>
      <use xlink:href="#DejaVuSans-63" x="514.603516"/>
      <use xlink:href="#DejaVuSans-65" x="569.583984"/>
      <use xlink:href="#DejaVuSans-6e" x="631.107422"/>
      <use xlink:href="#DejaVuSans-74" x="694.486328"/>
      <use xlink:href="#DejaVuSans-20" x="733.695312"/>
      <use xlink:href="#DejaVuSans-64" x="765.482422"/>
      <use xlink:href="#DejaVuSans-69" x="828.958984"/>
      <use xlink:href="#DejaVuSans-73" x="856.742188"/>
      <use xlink:href="#DejaVuSans-74" x="908.841797"/>
      <use xlink:href="#DejaVuSans-72" x="948.050781"/>
      <use xlink:href="#DejaVuSans-69" x="989.164062"/>
      <use xlink:href="#DejaVuSans-62" x="1016.947266"/>
      <use xlink:href="#DejaVuSans-75" x="1080.423828"/>
      <use xlink:href="#DejaVuSans-74" x="1143.802734"/>
      <use xlink:href="#DejaVuSans-65" x="1183.011719"/>
      <use xlink:href="#DejaVuSans-64" x="1244.535156"/>
      <use xlink:href="#DejaVuSans-20" x="1308.011719"/>
      <use xlink:href="#DejaVuSans-61" x="1339.798828"/>
      <use xlink:href="#DejaVuSans-67" x="1401.078125"/>
      <use xlink:href="#DejaVuSans-65" x="1464.554688"/>
      <use xlink:href="#DejaVuSans-6e" x="1526.078125"/>
      <use xlink:href="#DejaVuSans-74" x="1589.457031"/>
      <use xlink:href="#DejaVuSans-20" x="1628.666016"/>
      <use xlink:href="#DejaVuSans-30" x="1660.453125"/>
     </g>
    </g>
    <g id="line2d_19">
     <path d="M 181.099688 49.654687 
L 191.099688 49.654687 
L 201.099688 49.654687 
" style="fill: none; stroke: #2ca02c; stroke-width: 1.5; stroke-linecap: square"/>
    </g>
    <g id="text_17">
     <!-- Newton quadratic distributed agent 0 -->
     <g transform="translate(209.099688 53.154687)scale(0.1 -0.1)">
      <defs>
       <path id="DejaVuSans-4e" d="M 628 4666 
L 1478 4666 
L 3547 763 
L 3547 4666 
L 4159 4666 
L 4159 0 
L 3309 0 
L 1241 3903 
L 1241 0 
L 628 0 
L 628 4666 
z
" transform="scale(0.015625)"/>
       <path id="DejaVuSans-77" d="M 269 3500 
L 844 3500 
L 1563 769 
L 2278 3500 
L 2956 3500 
L 3675 769 
L 4391 3500 
L 4966 3500 
L 4050 0 
L 3372 0 
L 2619 2869 
L 1863 0 
L 1184 0 
L 269 3500 
z
" transform="scale(0.015625)"/>
       <path id="DejaVuSans-71" d="M 947 1747 
Q 947 1113 1208 752 
Q 1469 391 1925 391 
Q 2381 391 2643 752 
Q 2906 1113 2906 1747 
Q 2906 2381 2643 2742 
Q 2381 3103 1925 3103 
Q 1469 3103 1208 2742 
Q 947 2381 947 1747 
z
M 2906 525 
Q 2725 213 2448 61 
Q 2172 -91 1784 -91 
Q 1150 -91 751 415 
Q 353 922 353 1747 
Q 353 2572 751 3078 
Q 1150 3584 1784 3584 
Q 2172 3584 2448 3432 
Q 2725 3281 2906 2969 
L 2906 3500 
L 3481 3500 
L 3481 -1331 
L 2906 -1331 
L 2906 525 
z
" transform="scale(0.015625)"/>
      </defs>
      <use xlink:href="#DejaVuSans-4e"/>
      <use xlink:href="#DejaVuSans-65" x="74.804688"/>
      <use xlink:href="#DejaVuSans-77" x="136.328125"/>
      <use xlink:href="#DejaVuSans-74" x="218.115234"/>
      <use xlink:href="#DejaVuSans-6f" x="257.324219"/>
      <use xlink:href="#DejaVuSans-6e" x="318.505859"/>
      <use xlink:href="#DejaVuSans-20" x="381.884766"/>
      <use xlink:href="#DejaVuSans-71" x="413.671875"/>
      <use xlink:href="#DejaVuSans-75" x="477.148438"/>
      <use xlink:href="#DejaVuSans-61" x="540.527344"/>
      <use xlink:href="#DejaVuSans-64" x="601.806641"/>
      <use xlink:href="#DejaVuSans-72" x="665.283203"/>
      <use xlink:href="#DejaVuSans-61" x="706.396484"/>
      <use xlink:href="#DejaVuSans-74" x="767.675781"/>
      <use xlink:href="#DejaVuSans-69" x="806.884766"/>
      <use xlink:href="#DejaVuSans-63" x="834.667969"/>
      <use xlink:href="#DejaVuSans-20" x="889.648438"/>
      <use xlink:href="#DejaVuSans-64" x="921.435547"/>
      <use xlink:href="#DejaVuSans-69" x="984.912109"/>
      <use xlink:href="#DejaVuSans-73" x="1012.695312"/>
      <use xlink:href="#DejaVuSans-74" x="1064.794922"/>
      <use xlink:href="#DejaVuSans-72" x="1104.003906"/>
      <use xlink:href="#DejaVuSans-69" x="1145.117188"/>
      <use xlink:href="#DejaVuSans-62" x="1172.900391"/>
      <use xlink:href="#DejaVuSans-75" x="1236.376953"/>
      <use xlink:href="#DejaVuSans-74" x="1299.755859"/>
      <use xlink:href="#DejaVuSans-65" x="1338.964844"/>
      <use xlink:href="#DejaVuSans-64" x="1400.488281"/>
      <use xlink:href="#DejaVuSans-20" x="1463.964844"/>
      <use xlink:href="#DejaVuSans-61" x="1495.751953"/>
      <use xlink:href="#DejaVuSans-67" x="1557.03125"/>
      <use xlink:href="#DejaVuSans-65" x="1620.507812"/>
      <use xlink:href="#DejaVuSans-6e" x="1682.03125"/>
      <use xlink:href="#DejaVuSans-74" x="1745.410156"/>
      <use xlink:href="#DejaVuSans-20" x="1784.619141"/>
      <use xlink:href="#DejaVuSans-30" x="1816.40625"/>
     </g>
    </g>
    <g id="line2d_20">
     <path d="M 181.099688 64.332812 
L 191.099688 64.332812 
L 201.099688 64.332812 
" style="fill: none; stroke: #d62728; stroke-width: 1.5; stroke-linecap: square"/>
    </g>
    <g id="text_18">
     <!-- Newton Bregman distributed agent 0 -->
     <g transform="translate(209.099688 67.832812)scale(0.1 -0.1)">
      <defs>
       <path id="DejaVuSans-42" d="M 1259 2228 
L 1259 519 
L 2272 519 
Q 2781 519 3026 730 
Q 3272 941 3272 1375 
Q 3272 1813 3026 2020 
Q 2781 2228 2272 2228 
L 1259 2228 
z
M 1259 4147 
L 1259 2741 
L 2194 2741 
Q 2656 2741 2882 2914 
Q 3109 3088 3109 3444 
Q 3109 3797 2882 3972 
Q 2656 4147 2194 4147 
L 1259 4147 
z
M 628 4666 
L 2241 4666 
Q 2963 4666 3353 4366 
Q 3744 4066 3744 3513 
Q 3744 3084 3544 2831 
Q 3344 2578 2956 2516 
Q 3422 2416 3680 2098 
Q 3938 1781 3938 1306 
Q 3938 681 3513 340 
Q 3088 0 2303 0 
L 628 0 
L 628 4666 
z
" transform="scale(0.015625)"/>
      </defs>
      <use xlink:href="#DejaVuSans-4e"/>
      <use xlink:href="#DejaVuSans-65" x="74.804688"/>
      <use xlink:href="#DejaVuSans-77" x="136.328125"/>
      <use xlink:href="#DejaVuSans-74" x="218.115234"/>
      <use xlink:href="#DejaVuSans-6f" x="257.324219"/>
      <use xlink:href="#DejaVuSans-6e" x="318.505859"/>
      <use xlink:href="#DejaVuSans-20" x="381.884766"/>
      <use xlink:href="#DejaVuSans-42" x="413.671875"/>
      <use xlink:href="#DejaVuSans-72" x="482.275391"/>
      <use xlink:href="#DejaVuSans-65" x="521.138672"/>
      <use xlink:href="#DejaVuSans-67" x="582.662109"/>
      <use xlink:href="#DejaVuSans-6d" x="646.138672"/>
      <use xlink:href="#DejaVuSans-61" x="743.550781"/>
      <use xlink:href="#DejaVuSans-6e" x="804.830078"/>
      <use xlink:href="#DejaVuSans-20" x="868.208984"/>
      <use xlink:href="#DejaVuSans-64" x="899.996094"/>
      <use xlink:href="#DejaVuSans-69" x="963.472656"/>
      <use xlink:href="#DejaVuSans-73" x="991.255859"/>
      <use xlink:href="#DejaVuSans-74" x="1043.355469"/>
      <use xlink:href="#DejaVuSans-72" x="1082.564453"/>
      <use xlink:href="#DejaVuSans-69" x="1123.677734"/>
      <use xlink:href="#DejaVuSans-62" x="1151.460938"/>
      <use xlink:href="#DejaVuSans-75" x="1214.9375"/>
      <use xlink:href="#DejaVuSans-74" x="1278.316406"/>
      <use xlink:href="#DejaVuSans-65" x="1317.525391"/>
      <use xlink:href="#DejaVuSans-64" x="1379.048828"/>
      <use xlink:href="#DejaVuSans-20" x="1442.525391"/>
      <use xlink:href="#DejaVuSans-61" x="1474.3125"/>
      <use xlink:href="#DejaVuSans-67" x="1535.591797"/>
      <use xlink:href="#DejaVuSans-65" x="1599.068359"/>
      <use xlink:href="#DejaVuSans-6e" x="1660.591797"/>
      <use xlink:href="#DejaVuSans-74" x="1723.970703"/>
      <use xlink:href="#DejaVuSans-20" x="1763.179688"/>
      <use xlink:href="#DejaVuSans-30" x="1794.966797"/>
     </g>
    </g>
   </g>
  </g>
 </g>
 <defs>
  <clipPath id="p9e5efca4f2">
   <rect x="48.982813" y="7.2" width="357.12" height="266.112"/>
  </clipPath>
 </defs>
</svg>
